name analog
datacolumns 19
datarows 28
range 0.5085000000000001 0.522
endheader
time	ground_force_vx	ground_force_vy	ground_force_vz	ground_force_px	ground_force_py	ground_force_pz	l_ground_force_vx	l_ground_force_vy	l_ground_force_vz	l_ground_force_px	l_ground_force_py	l_ground_force_pz	ground_torque_x	ground_torque_y	ground_torque_z	l_ground_torque_x	l_ground_torque_y	l_ground_torque_z
0.5085000000000001	-0.0	-0.0	-0.0	34.66962432861328	6.3522138595581055	-53.841552734375	-4.854187965393066	-17.415903091430664	-788.03515625	-0.0	-0.0	-0.0	-0.0	-0.0	-0.0	267799.5625	-17292.677734375	-4039.4091796875
0.509	-0.0	-0.0	-0.0	40.45201873779297	7.9880757331848145	-70.60458374023438	-5.403116703033447	-17.921096801757812	-783.967529296875	-0.0	-0.0	-0.0	-0.0	-0.0	-0.0	266337.1875	-16747.70703125	-3991.643310546875
0.5095000000000001	-0.0	-0.0	-0.0	41.32018280029297	9.41641616821289	-88.5859375	-6.02416467666626	-18.57195281982422	-778.4473876953125	-0.0	-0.0	-0.0	-0.0	-0.0	-0.0	264274.15625	-16354.724609375	-3973.056640625
0.51	-0.0	-0.0	-0.0	38.60472106933594	9.366495132446287	-105.60079956054688	-6.411539077758789	-18.88467025756836	-772.7020874023438	-0.0	-0.0	-0.0	-0.0	-0.0	-0.0	261485.203125	-15753.7470703125	-4073.329833984375
0.5105000000000001	-0.0	-0.0	-0.0	33.20588302612305	9.432361602783203	-121.9696044921875	-6.63721227645874	-18.435014724731445	-763.404541015625	-0.0	-0.0	-0.0	-0.0	-0.0	-0.0	258825.171875	-15255.5458984375	-4243.28662109375
0.511	-0.0	-0.0	-0.0	26.941574096679688	9.463186264038086	-135.0973663330078	-6.951441287994385	-18.75605773925781	-753.0570068359375	-0.0	-0.0	-0.0	-0.0	-0.0	-0.0	255258.765625	-14672.7470703125	-4270.62890625
0.5115000000000001	-0.0	-0.0	-0.0	21.774991989135746	9.4044189453125	-148.98153686523438	-7.814488410949707	-18.59635162353516	-740.519287109375	-0.0	-0.0	-0.0	-0.0	-0.0	-0.0	251550.09375	-14311.2822265625	-4389.939453125
0.512	-0.0	-0.0	-0.0	20.072364807128903	9.009718894958496	-157.90133666992188	-7.999704837799072	-17.840980529785156	-729.8902587890625	-0.0	-0.0	-0.0	-0.0	-0.0	-0.0	247510.578125	-13715.3779296875	-4351.69384765625
0.5125	-0.0	-0.0	-0.0	20.9052848815918	7.115432262420654	-164.49269104003906	-8.257922172546387	-17.14219093322754	-716.212890625	-0.0	-0.0	-0.0	-0.0	-0.0	-0.0	243039.296875	-13236.8623046875	-4494.72607421875
0.513	-0.0	-0.0	-0.0	22.956884384155277	4.939228534698486	-166.25930786132812	-8.813401222229004	-15.986225128173828	-702.0523071289062	-0.0	-0.0	-0.0	-0.0	-0.0	-0.0	238525.140625	-12747.703125	-4497.3818359375
0.5135	-0.0	-0.0	-0.0	24.39944267272949	2.3844218254089355	-167.02491760253906	-8.967474937438965	-15.748363494873049	-689.7118530273438	-0.0	-0.0	-0.0	-0.0	-0.0	-0.0	234043.203125	-12251.0234375	-4565.7890625
0.514	-0.0	-0.0	-0.0	23.09087371826172	-0.0219541676342487	-165.87857055664062	-9.114296913146973	-14.027938842773438	-675.1690673828125	-0.0	-0.0	-0.0	-0.0	-0.0	-0.0	229437.359375	-11701.1162109375	-4546.08935546875
0.5145	-0.0	-0.0	-0.0	20.66783142089844	-1.380427598953247	-162.9307861328125	-8.908905982971191	-12.879901885986328	-663.9970703125	-0.0	-0.0	-0.0	-0.0	-0.0	-0.0	225311.125	-11473.193359375	-4461.7431640625
0.515	-0.0	-0.0	-0.0	17.02480125427246	-1.7006746530532837	-162.1666259765625	-8.907167434692383	-12.585094451904297	-651.457763671875	-0.0	-0.0	-0.0	-0.0	-0.0	-0.0	221298.453125	-10977.505859375	-4535.560546875
0.5155	-0.0	-0.0	-0.0	13.18172836303711	-1.3155478239059448	-158.28115844726562	-8.065224647521973	-11.57756519317627	-641.8550415039062	-0.0	-0.0	-0.0	-0.0	-0.0	-0.0	217456.53125	-10817.00390625	-4272.81787109375
0.516	-0.0	-0.0	-0.0	9.9915771484375	0.1500076204538345	-154.29432678222656	-7.673433780670166	-11.040210723876951	-630.1314697265625	-0.0	-0.0	-0.0	-0.0	-0.0	-0.0	214211.515625	-10837.07421875	-4027.722900390625
0.5165	-0.0	-0.0	-0.0	7.226051330566406	2.0780603885650635	-151.3278045654297	-7.200246810913086	-10.789854049682615	-621.7235107421875	-0.0	-0.0	-0.0	-0.0	-0.0	-0.0	211050.78125	-10958.3486328125	-3918.608154296875
0.517	-0.0	-0.0	-0.0	4.357393264770508	3.6613008975982666	-149.748291015625	-6.202478885650635	-10.407470703125	-613.3734741210938	-0.0	-0.0	-0.0	-0.0	-0.0	-0.0	208157.3125	-10827.919921875	-3710.193603515625
0.5175	-0.0	-0.0	-0.0	2.923283100128174	6.211601257324219	-149.39511108398438	-6.106637001037598	-10.245315551757812	-605.806396484375	-0.0	-0.0	-0.0	-0.0	-0.0	-0.0	205595.25	-11008.5546875	-3480.046630859375
0.518	-0.0	-0.0	-0.0	1.5647516250610352	8.151866912841797	-148.0906982421875	-5.145225524902344	-10.524529457092283	-598.18115234375	-0.0	-0.0	-0.0	-0.0	-0.0	-0.0	203653.4375	-11010.77734375	-3314.34814453125
0.5185	-0.0	-0.0	-0.0	0.3297750949859619	10.798299789428713	-148.9883575439453	-4.421372890472412	-10.354793548583984	-593.334716796875	-0.0	-0.0	-0.0	-0.0	-0.0	-0.0	201472.828125	-11190.7373046875	-2986.389892578125
0.519	-0.0	-0.0	-0.0	-0.9391337633132936	13.84206199645996	-150.0216827392578	-3.6230719089508057	-10.584593772888184	-586.57470703125	-0.0	-0.0	-0.0	-0.0	-0.0	-0.0	199785.34375	-11229.64453125	-2823.34912109375
0.5195	-0.0	-0.0	-0.0	-2.825443983078003	16.043472290039062	-151.97279357910156	-2.8038721084594727	-10.97966480255127	-583.6442260742188	-0.0	-0.0	-0.0	-0.0	-0.0	-0.0	198093.796875	-11399.4052734375	-2380.238525390625
0.52	-0.0	-0.0	-0.0	-4.91677188873291	18.380599975585938	-155.4773712158203	-2.0610544681549072	-11.1422758102417	-580.3674926757812	-0.0	-0.0	-0.0	-0.0	-0.0	-0.0	196825.484375	-11551.8798828125	-2313.474853515625
0.5205	-0.0	-0.0	-0.0	-6.072851181030273	20.258724212646484	-160.74862670898438	-1.3512247800827026	-11.604262351989746	-575.7509765625	-0.0	-0.0	-0.0	-0.0	-0.0	-0.0	195481.5625	-11692.7509765625	-2116.799072265625
0.521	-0.0	-0.0	-0.0	-6.914541721343994	22.900043487548828	-164.96066284179688	-0.2729264795780182	-11.712576866149902	-572.0723266601562	-0.0	-0.0	-0.0	-0.0	-0.0	-0.0	194129.390625	-11683.203125	-1814.9473876953125
0.5215	-0.0	-0.0	-0.0	-7.315261840820312	24.530052185058597	-168.03759765625	-0.3212347030639648	-12.16162395477295	-566.884765625	-0.0	-0.0	-0.0	-0.0	-0.0	-0.0	192743.453125	-11812.3046875	-1602.9281005859375
0.522	-0.0	-0.0	-0.0	-7.264179229736328	25.89225959777832	-173.1084747314453	0.2661323547363281	-12.27007007598877	-564.9273681640625	-0.0	-0.0	-0.0	-0.0	-0.0	-0.0	191732.8125	-11963.4951171875	-1581.81591796875
